<svg width="14" height="14" viewBox="0 0 14 14" fill="none" xmlns="http://www.w3.org/2000/svg">
<g id="subject">
<path id="combo shape" fill-rule="evenodd" clip-rule="evenodd" d="M1 0.25C0.585786 0.25 0.25 0.585786 0.25 1C0.25 1.41421 0.585786 1.75 1 1.75H13C13.4142 1.75 13.75 1.41421 13.75 1C13.75 0.585786 13.4142 0.25 13 0.25H1ZM1 4.25C0.585786 4.25 0.25 4.58579 0.25 5C0.25 5.41421 0.585786 5.75 1 5.75H13C13.4142 5.75 13.75 5.41421 13.75 5C13.75 4.58579 13.4142 4.25 13 4.25H1ZM0.25 9C0.25 8.58579 0.585786 8.25 1 8.25H13C13.4142 8.25 13.75 8.58579 13.75 9C13.75 9.41421 13.4142 9.75 13 9.75H1C0.585786 9.75 0.25 9.41421 0.25 9ZM1 12.25C0.585786 12.25 0.25 12.5858 0.25 13C0.25 13.4142 0.585786 13.75 1 13.75H7C7.41421 13.75 7.75 13.4142 7.75 13C7.75 12.5858 7.41421 12.25 7 12.25H1Z" fill="#F6F6F6"/>
</g>
</svg>
