<svg width="14" height="14" viewBox="0 0 14 14" fill="none" xmlns="http://www.w3.org/2000/svg">
<g id="align-center">
<path id="combo shape" fill-rule="evenodd" clip-rule="evenodd" d="M4 0.25C3.58579 0.25 3.25 0.585786 3.25 1C3.25 1.41421 3.58579 1.75 4 1.75H10C10.4142 1.75 10.75 1.41421 10.75 1C10.75 0.585786 10.4142 0.25 10 0.25H4ZM1 4.25C0.585786 4.25 0.25 4.58579 0.25 5C0.25 5.41421 0.585786 5.75 1 5.75H13C13.4142 5.75 13.75 5.41421 13.75 5C13.75 4.58579 13.4142 4.25 13 4.25H1ZM3.25 9C3.25 8.58579 3.58579 8.25 4 8.25H10C10.4142 8.25 10.75 8.58579 10.75 9C10.75 9.41421 10.4142 9.75 10 9.75H4C3.58579 9.75 3.25 9.41421 3.25 9ZM1 12.25C0.585786 12.25 0.25 12.5858 0.25 13C0.25 13.4142 0.585786 13.75 1 13.75H13C13.4142 13.75 13.75 13.4142 13.75 13C13.75 12.5858 13.4142 12.25 13 12.25H1Z" fill="#F6F6F6"/>
</g>
</svg>
