<svg width="14" height="14" viewBox="0 0 14 14" fill="none" xmlns="http://www.w3.org/2000/svg">
<g id="Vector">
<mask id="path-1-inside-1_542_3166" fill="white">
<path d="M7 0.5C10.5898 0.5 13.5 3.41023 13.5 7C13.5 10.5898 10.5898 13.5 7 13.5C3.41023 13.5 0.5 10.5898 0.5 7C0.5 3.41023 3.41023 0.5 7 0.5ZM1.38636 7C1.38636 8.48883 1.9778 9.91668 3.03056 10.9694C4.08332 12.0222 5.51117 12.6136 7 12.6136C8.48883 12.6136 9.91668 12.0222 10.9694 10.9694C12.0222 9.91668 12.6136 8.48883 12.6136 7C12.6136 5.51117 12.0222 4.08332 10.9694 3.03056C9.91668 1.9778 8.48883 1.38636 7 1.38636C5.51117 1.38636 4.08332 1.9778 3.03056 3.03056C1.9778 4.08332 1.38636 5.51117 1.38636 7ZM10.6932 7.44318H3.30682C3.18928 7.44318 3.07655 7.39649 2.99344 7.31338C2.91033 7.23026 2.86364 7.11754 2.86364 7C2.86364 6.88246 2.91033 6.76974 2.99344 6.68662C3.07655 6.60351 3.18928 6.55682 3.30682 6.55682H10.6932C10.8107 6.55682 10.9234 6.60351 11.0066 6.68662C11.0897 6.76974 11.1364 6.88246 11.1364 7C11.1364 7.11754 11.0897 7.23026 11.0066 7.31338C10.9234 7.39649 10.8107 7.44318 10.6932 7.44318Z"/>
</mask>
<path d="M7 0.5C10.5898 0.5 13.5 3.41023 13.5 7C13.5 10.5898 10.5898 13.5 7 13.5C3.41023 13.5 0.5 10.5898 0.5 7C0.5 3.41023 3.41023 0.5 7 0.5ZM1.38636 7C1.38636 8.48883 1.9778 9.91668 3.03056 10.9694C4.08332 12.0222 5.51117 12.6136 7 12.6136C8.48883 12.6136 9.91668 12.0222 10.9694 10.9694C12.0222 9.91668 12.6136 8.48883 12.6136 7C12.6136 5.51117 12.0222 4.08332 10.9694 3.03056C9.91668 1.9778 8.48883 1.38636 7 1.38636C5.51117 1.38636 4.08332 1.9778 3.03056 3.03056C1.9778 4.08332 1.38636 5.51117 1.38636 7ZM10.6932 7.44318H3.30682C3.18928 7.44318 3.07655 7.39649 2.99344 7.31338C2.91033 7.23026 2.86364 7.11754 2.86364 7C2.86364 6.88246 2.91033 6.76974 2.99344 6.68662C3.07655 6.60351 3.18928 6.55682 3.30682 6.55682H10.6932C10.8107 6.55682 10.9234 6.60351 11.0066 6.68662C11.0897 6.76974 11.1364 6.88246 11.1364 7C11.1364 7.11754 11.0897 7.23026 11.0066 7.31338C10.9234 7.39649 10.8107 7.44318 10.6932 7.44318Z" fill="white"/>
<path d="M1.38636 7H0.386364H1.38636ZM7 12.6136V13.6136V12.6136ZM12.6136 7H13.6136H12.6136ZM7 1.38636V0.386364V1.38636ZM2.86364 7H1.86364H2.86364ZM7 1.5C10.0375 1.5 12.5 3.96251 12.5 7H14.5C14.5 2.85794 11.1421 -0.5 7 -0.5V1.5ZM12.5 7C12.5 10.0375 10.0375 12.5 7 12.5V14.5C11.1421 14.5 14.5 11.1421 14.5 7H12.5ZM7 12.5C3.96251 12.5 1.5 10.0375 1.5 7H-0.5C-0.5 11.1421 2.85794 14.5 7 14.5V12.5ZM1.5 7C1.5 3.96251 3.96251 1.5 7 1.5V-0.5C2.85794 -0.5 -0.5 2.85794 -0.5 7H1.5ZM0.386364 7C0.386364 8.75405 1.08316 10.4362 2.32345 11.6765L3.73767 10.2623C2.87244 9.39711 2.38636 8.22361 2.38636 7H0.386364ZM2.32345 11.6765C3.56375 12.9168 5.24595 13.6136 7 13.6136V11.6136C5.77639 11.6136 4.60289 11.1276 3.73767 10.2623L2.32345 11.6765ZM7 13.6136C8.75405 13.6136 10.4362 12.9168 11.6765 11.6765L10.2623 10.2623C9.39711 11.1276 8.22361 11.6136 7 11.6136V13.6136ZM11.6765 11.6765C12.9168 10.4362 13.6136 8.75405 13.6136 7H11.6136C11.6136 8.22361 11.1276 9.39711 10.2623 10.2623L11.6765 11.6765ZM13.6136 7C13.6136 5.24595 12.9168 3.56375 11.6765 2.32345L10.2623 3.73767C11.1276 4.60289 11.6136 5.77639 11.6136 7H13.6136ZM11.6765 2.32345C10.4362 1.08316 8.75405 0.386364 7 0.386364V2.38636C8.22361 2.38636 9.39711 2.87244 10.2623 3.73767L11.6765 2.32345ZM7 0.386364C5.24595 0.386364 3.56375 1.08316 2.32345 2.32345L3.73767 3.73767C4.60289 2.87244 5.77639 2.38636 7 2.38636V0.386364ZM2.32345 2.32345C1.08316 3.56375 0.386364 5.24595 0.386364 7H2.38636C2.38636 5.77639 2.87244 4.60289 3.73767 3.73767L2.32345 2.32345ZM10.6932 6.44318H3.30682V8.44318H10.6932V6.44318ZM3.30682 6.44318C3.4545 6.44318 3.59613 6.50185 3.70055 6.60627L2.28633 8.02048C2.55698 8.29113 2.92406 8.44318 3.30682 8.44318V6.44318ZM3.70055 6.60627C3.80497 6.71069 3.86364 6.85232 3.86364 7H1.86364C1.86364 7.38276 2.01569 7.74983 2.28633 8.02048L3.70055 6.60627ZM3.86364 7C3.86364 7.14768 3.80497 7.28931 3.70055 7.39373L2.28633 5.97952C2.01569 6.25017 1.86364 6.61724 1.86364 7H3.86364ZM3.70055 7.39373C3.59613 7.49815 3.4545 7.55682 3.30682 7.55682V5.55682C2.92406 5.55682 2.55698 5.70887 2.28633 5.97952L3.70055 7.39373ZM3.30682 7.55682H10.6932V5.55682H3.30682V7.55682ZM10.6932 7.55682C10.5455 7.55682 10.4039 7.49815 10.2995 7.39373L11.7137 5.97952C11.443 5.70887 11.0759 5.55682 10.6932 5.55682V7.55682ZM10.2995 7.39373C10.195 7.28931 10.1364 7.14768 10.1364 7H12.1364C12.1364 6.61725 11.9843 6.25017 11.7137 5.97952L10.2995 7.39373ZM10.1364 7C10.1364 6.85232 10.195 6.71069 10.2995 6.60627L11.7137 8.02048C11.9843 7.74983 12.1364 7.38275 12.1364 7H10.1364ZM10.2995 6.60627C10.4039 6.50185 10.5455 6.44318 10.6932 6.44318V8.44318C11.0759 8.44318 11.443 8.29113 11.7137 8.02048L10.2995 6.60627Z" fill="#F6F6F6" mask="url(#path-1-inside-1_542_3166)"/>
</g>
</svg>
