<svg width="8" height="8" viewBox="0 0 8 8" fill="none" xmlns="http://www.w3.org/2000/svg">
<path id="Vector" d="M3.99927 7.5C3.02218 7.5 2.19458 7.16094 1.51645 6.48281C0.83833 5.80469 0.499268 4.97708 0.499268 4C0.499268 3.02292 0.83833 2.19531 1.51645 1.51719C2.19458 0.839062 3.02218 0.5 3.99927 0.5C4.50239 0.5 4.98364 0.603833 5.44302 0.8115C5.90239 1.01917 6.29614 1.31638 6.62427 1.70312V0.5H7.49927V3.5625H4.43677V2.6875H6.27427C6.04093 2.27917 5.722 1.95833 5.31745 1.725C4.91291 1.49167 4.47352 1.375 3.99927 1.375C3.2701 1.375 2.65031 1.63021 2.13989 2.14062C1.62948 2.65104 1.37427 3.27083 1.37427 4C1.37427 4.72917 1.62948 5.34896 2.13989 5.85938C2.65031 6.36979 3.2701 6.625 3.99927 6.625C4.56073 6.625 5.0675 6.46458 5.51958 6.14375C5.97166 5.82292 6.28885 5.4 6.47114 4.875H7.38989C7.18573 5.64792 6.7701 6.27865 6.14302 6.76719C5.51593 7.25573 4.80135 7.5 3.99927 7.5Z" fill="#F6F6F6"/>
</svg>
