<svg width="16" height="19" viewBox="0 0 16 19" fill="none" xmlns="http://www.w3.org/2000/svg">
<g id="Group">
<path id="Vector" d="M5 2.5H3C2.46957 2.5 1.96086 2.71071 1.58579 3.08579C1.21071 3.46086 1 3.96957 1 4.5V16.5C1 17.0304 1.21071 17.5391 1.58579 17.9142C1.96086 18.2893 2.46957 18.5 3 18.5H13C13.5304 18.5 14.0391 18.2893 14.4142 17.9142C14.7893 17.5391 15 17.0304 15 16.5V4.5C15 3.96957 14.7893 3.46086 14.4142 3.08579C14.0391 2.71071 13.5304 2.5 13 2.5H11" stroke="#FDECD7" stroke-linecap="round" stroke-linejoin="round"/>
<path id="Vector_2" d="M5 9.5V8.5H11V9.5M8 8.5V14.5M7 14.5H9M5 2.5C5 1.96957 5.21071 1.46086 5.58579 1.08579C5.96086 0.710714 6.46957 0.5 7 0.5H9C9.53043 0.5 10.0391 0.710714 10.4142 1.08579C10.7893 1.46086 11 1.96957 11 2.5C11 3.03043 10.7893 3.53914 10.4142 3.91421C10.0391 4.28929 9.53043 4.5 9 4.5H7C6.46957 4.5 5.96086 4.28929 5.58579 3.91421C5.21071 3.53914 5 3.03043 5 2.5Z" stroke="#FDECD7" stroke-linecap="round" stroke-linejoin="round"/>
</g>
</svg>
